inDegrees=no
num_controls=7
num_derivatives=13
num_iterations=317
num_multipliers=7
num_parameters=0
num_slacks=7
num_states=26
objective=5.885344
objective_accelerations=0.664400
objective_balance=0.088475
objective_effort=0.500988
objective_height=4.528830
objective_ligament=0.102650
solver_duration=3546.640081
status=Solve_Succeeded
success=true
DataType=double
version=3
OpenSimVersion=4.4-2022-07-23-0e9fedc
endheader
time	/jointset/ground_pelvis/pelvis_tilt/value	/jointset/ground_pelvis/pelvis_tx/value	/jointset/ground_pelvis/pelvis_ty/value	/jointset/hip_l/hip_flexion_l/value	/jointset/hip_l/hip_adduction_l/value	/jointset/hip_l/hip_rotation_l/value	/jointset/back/lumbar_extension/value	/jointset/patellofemoral_l/patellar_flexion_l/value	/jointset/knee_l/knee_flexion_l/value	/jointset/knee_l/knee_adduction_l/value	/jointset/knee_l/knee_rotation_l/value	/jointset/ankle_l/ankle_angle_l/value	/jointset/subtalar_l/subtalar_angle_l/value	/jointset/ground_pelvis/pelvis_tilt/speed	/jointset/ground_pelvis/pelvis_tx/speed	/jointset/ground_pelvis/pelvis_ty/speed	/jointset/hip_l/hip_flexion_l/speed	/jointset/hip_l/hip_adduction_l/speed	/jointset/hip_l/hip_rotation_l/speed	/jointset/back/lumbar_extension/speed	/jointset/patellofemoral_l/patellar_flexion_l/speed	/jointset/knee_l/knee_flexion_l/speed	/jointset/knee_l/knee_adduction_l/speed	/jointset/knee_l/knee_rotation_l/speed	/jointset/ankle_l/ankle_angle_l/speed	/jointset/subtalar_l/subtalar_angle_l/speed	/forceset/tau_hip_flexion_l	/forceset/tau_hip_adduction_l	/forceset/tau_hip_rotation_l	/forceset/tau_knee_flexion_l	/forceset/tau_ankle_angle_l	/forceset/tau_subtalar_angle_l	/forceset/tau_lumbar_extension	lambda_cid13_p0	lambda_cid13_p1	lambda_cid13_p2	lambda_cid13_p3	lambda_cid13_p4	lambda_cid13_p5	lambda_cid14_p0	/jointset/ground_pelvis/pelvis_tilt/accel	/jointset/ground_pelvis/pelvis_tx/accel	/jointset/ground_pelvis/pelvis_ty/accel	/jointset/hip_l/hip_flexion_l/accel	/jointset/hip_l/hip_adduction_l/accel	/jointset/hip_l/hip_rotation_l/accel	/jointset/back/lumbar_extension/accel	/jointset/patellofemoral_l/patellar_flexion_l/accel	/jointset/knee_l/knee_flexion_l/accel	/jointset/knee_l/knee_adduction_l/accel	/jointset/knee_l/knee_rotation_l/accel	/jointset/ankle_l/ankle_angle_l/accel	/jointset/subtalar_l/subtalar_angle_l/accel	gamma_cid13_p0	gamma_cid13_p1	gamma_cid13_p2	gamma_cid13_p3	gamma_cid13_p4	gamma_cid13_p5	gamma_cid14_p0
0	-0.1598933504761556	0.05847292223990779	0.8979896170587899	0.3774920279260975	-0.2592704053561593	-0.270701984105171	-0.0126506700172305	0.03223623128432621	0.03223623128433527	-0.1745329044644658	0.1723627672063255	-0.04231376238535053	-0.009421160398199431	0	0	0	0	0	0	0	0	0	0	0	0	0	0.1500407390196662	-0.07450059281820698	-0.04824802952423948	-0.2836530933567339	0.2583532663486933	-0.03692425300208643	-0.09862706289215847	40.70268555726444	2.491435968898037	6.531302456615368	15.88797875326501	-586.7757775794361	-72.30547550937443	-39.00543070644041	-5.084350075373678	-2.758037179032057	-1.235870393508903	13.86802056134421	-1.192369907893171	2.805158745998208	-6.230977314821872	8.624990395116464	8.624990395116523	0.06471243406264388	0.1395142755033556	-0.1439767566380455	-1.255246707383775	-1.442467428341213e-08	1.131403756677284e-07	5.510394409977235e-08	-9.367973024169052e-09	1.148590155946516e-07	4.957147859654568e-08	-7.258577366904117e-09
0.01	-0.1601396782613464	0.05833687901534655	0.8979291620407016	0.3781688877639945	-0.2593300120704092	-0.2705623782060259	-0.01296315033746696	0.03265763842120067	0.03265763842120095	-0.1745321031736344	0.1723672007337451	-0.04232256124450568	-0.009484257589729124	-0.04901843284258056	-0.02706319064598312	-0.01204426195322558	0.1347115283337388	-0.01185750558241212	0.02778434880983436	-0.0620449746650056	0.0839034028446996	0.08390340284471146	0.0001647432502065822	0.000892989511363758	-0.001719799188057666	-0.01254527756975955	0.1441048653909766	-0.07919266764176242	-0.04727089124597127	-0.2779090364373112	0.2511184427151804	-0.02866554662614582	-0.09355766716822539	38.68611446635457	-0.5898670398694984	6.848506286339323	15.92303523281704	-587.8941918260811	-77.9484850964899	-39.01767390647422	-4.773529128665821	-2.658643740583001	-1.181669874595434	13.17364735834355	-1.172883496163922	2.744542865794694	-6.123594135579046	8.216313000946384	8.216313000947782	-0.006950376400375386	0.06513008473309552	-0.1799855782915312	-1.243068297288732	-3.606707337986569e-08	1.152420492651023e-07	9.302368988713211e-08	7.324367627847199e-09	-1.943916330511395e-08	5.189973472678962e-08	-1.470716452727914e-08
0.02	-0.1608687782229402	0.05793456713768576	0.897749671247409	0.3801730485630326	-0.2595062823630354	-0.2701490348353313	-0.01388254772299735	0.03390673914090001	0.03390673914090255	-0.1745295155809936	0.1723807519154309	-0.04234735891122195	-0.009670587560059687	-0.09655443528388498	-0.05325373061991215	-0.02380715504085596	0.2654601922256516	-0.02333271567477626	0.05474749431242434	-0.1213834130596194	0.1655387165613936	0.1655387165614063	0.0003572606244377417	0.00182353085393024	-0.003199761512182567	-0.02464655576017552	0.1381689917624105	-0.08388474246528504	-0.04629375296766422	-0.272164979517719	0.2438836190817508	-0.02040684025015459	-0.08848827144429064	36.74622707669351	-3.683928797346397	7.166983828336764	15.89559425213904	-587.7937662139814	-83.49600281288487	-39.05379874893058	-4.787863995118641	-2.583507044621076	-1.179596620389805	13.07544767297915	-1.11591080988284	2.640918084549363	-5.689670060743704	8.171372569515308	8.171372569513149	0.07026725886901579	0.1470246417437961	-0.09600938385109394	-1.166446831514246	-5.770947247631925e-08	1.173437228624762e-07	1.309434356744919e-07	2.401670827986345e-08	-1.537373422048795e-07	5.422799085703355e-08	-2.215575168765416e-08
0.03	-0.1620661747420942	0.05727461903827109	0.8974536668414668	0.3834657297815297	-0.2597951027266792	-0.2694699024136722	-0.01538172834667415	0.03596119824340727	0.03596119824341453	-0.1745244298412295	0.1724036056023456	-0.0423857143872893	-0.009975425447353893	-0.1426700114754226	-0.07859707525203219	-0.03536950031445951	0.392435215570388	-0.03435211840045294	0.08096696285806365	-0.1780380338560741	0.2449889173814127	0.2449889173814214	0.0006778874330014435	0.002730616640758082	-0.004433290705484919	-0.0362331293763276	0.1315106329862707	-0.0792330208112188	-0.04534277419681814	-0.2662338111302378	0.2385622686361232	-0.02144950921117884	-0.08300108269378074	35.0610743331989	-3.023686846754321	7.161836404712242	15.95837037385619	-587.4384540837281	-81.16328434350267	-39.11264086198566	-4.485183339290854	-2.488921199327729	-1.140950895937445	12.41239373678051	-1.083084908192556	2.595637987987442	-5.591156416683044	7.777220315566669	7.777220315567436	0.01568778131718292	0.06004422175383813	-0.1313204200288981	-1.141611782382052	-7.411868680535914e-08	1.382259905261743e-07	1.491935423178847e-07	3.846197542991347e-08	-2.477980906969039e-07	6.395579966322332e-08	-2.478251157988455e-08
0.04	-0.1637170828047755	0.05636540288717209	0.8970427594997704	0.3880089340477991	-0.2601917430984356	-0.2685319399568732	-0.01743501484382872	0.03879923464957859	0.03879923464958045	-0.1745155923555296	0.1724350288820463	-0.0424352643018811	-0.01039349890195286	-0.187256743991784	-0.1031073409567779	-0.04678774219167286	0.5155648017775245	-0.04489671729742581	0.1065135013403565	-0.2322045877560365	0.3222541772942884	0.3222541772943024	0.001107609820251967	0.003537449411642316	-0.005438649217149187	-0.04729366922113391	0.1248522742101497	-0.07458129915716492	-0.04439179542597081	-0.2603026427427731	0.2332409181904792	-0.02249217817221905	-0.077513893943238	33.44493688335446	-2.373887939961878	7.156481425665835	15.95921492394129	-585.9971967723731	-78.73947350899087	-39.19288389483877	-4.482095260083687	-2.416891259145943	-1.150775941111759	12.30636024545916	-1.020950044142021	2.506332071880102	-5.192056681445431	7.734384388086591	7.734384388086268	0.09208637460649817	0.1269740385550342	-0.05037524752315056	-1.061240077244953	-9.042000041754515e-08	1.59495486933508e-07	1.670380893912988e-07	5.286091116755181e-08	-3.410292014485625e-07	7.383617656582434e-08	-2.730985235318412e-08
0.05	-0.1658068604454012	0.05521528299670461	0.8965181267823096	0.3937651434847055	-0.2606913403135584	-0.2673420126786045	-0.02001697574503098	0.04239936665787307	0.04239936665788065	-0.1745018235839272	0.1724742443430534	-0.04249359844131408	-0.01091940812681263	-0.230452932347367	-0.1267703407480647	-0.05813237317998599	0.635033159349281	-0.05494511831851059	0.1313470229353255	-0.2837734922998959	0.3973955867674647	0.3973955867674598	0.001637727852046494	0.004296163483845533	-0.006194152460010788	-0.0578031474946063	0.1178227220768948	-0.07276333109634145	-0.04342980247446526	-0.2549325245310714	0.2282042635774951	-0.02078584459033837	-0.07177480667877718	32.0331389060682	-2.87417710623095	7.243578349125743	15.70791491495036	-584.5555385562016	-78.62718610882244	-39.29284823971083	-4.20151040789366	-2.319049191546889	-1.125411418822763	11.67047023638674	-0.9851623820763014	2.453098531454108	-5.0771923136611	7.347529069523159	7.347529069520552	0.03224809204343528	0.04887588873105502	-0.08303790871703572	-1.033090796557399	-1.023399230858151e-07	1.725316224995087e-07	1.810508261185155e-07	6.460299130185384e-08	-4.057348232948799e-07	7.919297595843766e-08	-2.919727199038875e-08
